<?xml version="1.0" encoding="UTF-8" standalone="no"?>
<svg width="39px" height="39px" viewBox="0 0 39 39" version="1.1" xmlns="http://www.w3.org/2000/svg" xmlns:xlink="http://www.w3.org/1999/xlink">
    <!-- Generator: Sketch 42 (36781) - http://www.bohemiancoding.com/sketch -->
    <title>comment</title>
    <desc>Created with Sketch.</desc>
    <defs></defs>
    <g id="Page-1" stroke="none" stroke-width="1" fill="none" fill-rule="evenodd">
        <g id="comment" fill-rule="nonzero">
            <g id="Group">
                <circle id="Oval" fill="#000000" cx="19.405" cy="19.405" r="19"></circle>
                <path d="M25.233,15.414 C25.583,15.414 25.869,15.7 25.869,16.051 L25.869,23.051 C25.869,23.401 25.583,23.688 25.232,23.688 L19.732,23.688 L16.96,25.67 L16.96,23.687 L15.05,23.687 C14.7,23.687 14.414,23.401 14.414,23.051 L14.414,16.051 C14.414,15.701 14.7,15.415 15.051,15.415 L25.234,15.415 M25.234,14.143 L15.05,14.143 C13.996,14.143 13.142,14.997 13.142,16.053 L13.142,23.053 C13.142,24.106 13.996,24.961 15.052,24.961 L15.687,24.961 L15.687,28.143 L20.142,24.961 L25.232,24.961 C26.287,24.961 27.142,24.106 27.142,23.051 L27.142,16.051 C27.142,14.997 26.287,14.143 25.232,14.143" id="Shape" fill="#FFFFFF"></path>
            </g>
        </g>
    </g>
</svg>